<svg version="1" xmlns="http://www.w3.org/2000/svg" width="402.667" height="402.667" viewBox="0 0 302.000000 302.000000"><path d="M206.6 2.2c-1.9 2.2-1.9 2.2 3.4.3 3.5-1.2 4.6-1.3 5.9-.3 1.4 1.2 1.4 1.1.3-.4-1.8-2.3-7.5-2.1-9.6.4zM271.2 4.2c5.9 2.2 10.5 4.4 10.2 4.9-.3.5.1.6.9.4.7-.3 3 .2 5.1 1l3.8 1.6-3.7 1.9c-2.1 1.1-4.2 1.7-4.6 1.4-.5-.3-.9-.2-.9.3 0 1-4.8 3.3-6.9 3.3-.8 0-1.1.3-.8.7.4.4-1.4 1.7-3.9 3-3.8 1.9-4.9 2.1-5.7 1.1-.6-1-.7-.9-.4.4.4 1.2-.2 1.8-2.4 2.3-1.6.4-2.6 1.1-2.3 1.7.4.5-.4.5-1.6-.2-1.5-.8-2-.8-1.6-.1.4.6 0 1.1-1.1 1.2-1.1 0-1.3.3-.5.6.7.3-1.9 2-5.7 3.9-6.5 3.2-10.4 4.5-7.3 2.5 1-.6.9-1-.7-1.4-1.2-.3-1.9-.1-1.5.4.3.5.1.9-.5.9-.5 0-1.3-.9-1.6-2-.6-1.9-2.6-2.5-6.8-2.2-1 .1-1.6-.2-1.2-.7.6-1.1-3-2.5-4.4-1.7-.5.3-1.2-.1-1.5-1-.4-1-1.4-1.4-2.6-1.1-1.1.3-2 0-2-.6s-.3-.7-.7-.4c-.3.4-1.4 0-2.4-.9s-2.5-1.4-3.3-1.1c-.9.4-1.8.2-2.1-.3-.3-.4 0-1 .7-1.2.7-.3.2-.7-1-1-1.2-.4-2-.2-1.7.2.3.4-.4.6-1.5.3s-1.7-1-1.4-1.5c.4-.6-.2-.7-1.6-.3-1.6.5-2 .4-1.5-.5s.1-1-1.5-.5c-1.7.5-2.1.4-1.5-.5.5-.8.4-1.1-.3-.6-1.2.7-5.8-1-8.6-3.3-1.3-1.1-1.7-1.2-1.2-.3.7 1.1.4 1.2-1.2.3-1.1-.6-2.9-1.1-3.9-1.1-1.5 0-1.6.2-.3 1s1.2 1-.3 1c-1 0-2.7.8-3.8 1.8-1.9 1.9-1.8 2 5.8 5.4 4.3 2 16.3 7.1 26.7 11.4 16.1 6.7 18.5 7.9 16.2 8.5-1.5.4-3.4 1.3-4.2 2-1.8 1.5-8.7 2.1-7.8.7.4-.6-.2-.6-1.4.1-1.1.6-3 1.1-4.2 1.1-1.6 0-2 .4-1.6 1.6.5 1.4.1 1.6-2.6 1.1-2.9-.5-3-.5-1 .5 3.7 1.8 2.3 4-2.7 4.2-1.9.1-2.6.6-2.5 1.9.1 1.3-.1 1.5-1 .8s-1.6-.7-2.4.1c-1.2 1.2-4.6.3-3.8-1.1.3-.4 2-1.1 3.7-1.5 1.8-.3 3-.8 2.8-1-.2-.2-2.9.1-5.9.8-3.6.9-4.8 1.5-3.5 1.8 1.8.4 1.7.6-.8 1.8-2 1-3 1.1-3.9.2-.8-.8-.5-.9 1.3-.5 1.3.3 2.2.3 1.9 0-.3-.3-1.7-.8-3.1-1-2.3-.5-2.6-.2-2.7 2.5-.1 3.3-.8 4.5-1.9 3.4-.4-.4-.2-1.5.4-2.6 1.8-2.8-.7-4.3-5.9-3.5-6.5 1-11 2.8-9.5 3.7 1.6 1-1 1-3.8-.1-1.6-.7-1.3-.9 1.9-1.5 3-.6 3.6-1 2.5-1.7-1-.8-.7-.8 1-.4 1.6.5 2.1.4 1.7-.4-.5-.7.6-1.1 3.1-1.2l3.8-.1-3.9-1c-2.5-.7-4-.7-4.5-.1-.7 1.1-6.1 2.4-10.5 2.5l-2.9.1 2.6 1.4c3.8 1.9 3.4 2.5-.5.8-2.4-1-3.3-2-3.3-3.7 0-1.4-.7-2.4-1.8-2.6-1.6-.3-1.7-.1-.7 1.7 1.2 2.4-.1 2.8-2 .6-.7-.8-2.3-1.5-3.6-1.5-1.5 0-2.4-.6-2.4-1.5 0-1.6-2-1.6-3.3 0-.5.6-.7.1-.4-1 .3-1.5-.1-2.1-1.4-2.2-1-.1-2.1.2-2.4.8-.4.5-1.2.9-1.8.9-.7 0-.6-.4.3-1 1.1-.7.9-1.1-1.4-1.9-1.5-.6-3.2-.9-3.7-.5-.5.3-.9.1-.9-.5s-.8-.7-1.7-.4c-1.6.6-1.6.5-.5-1 1.2-1.4 1.1-1.5-1.8-.4-2.9 1.1-3.1 1.5-2.8 5.6l.3 4.5 22.7 10.5c12.5 5.8 22.6 10.6 22.5 10.7-.1 0-1.9.4-4 .7-3.1.5-3.8.3-3.3-.8.6-1.7-2.9-3.9-4.5-2.9-.7.4-3.2.8-5.8.9-3.2.2-4 0-2.6-.5l2-.9-2-.1c-1.9-.1-1.8-.2.3-1 1.2-.5 2.2-1.5 2.2-2.1 0-.8-.5-.7-1.7.2-1.5 1.2-1.6 1.2-1-.4.4-1.1.3-1.6-.3-1.2-.6.3-1 .2-1-.4 0-.6-.7-.7-1.7-.4-1.2.5-1.4.3-.8-.7.6-1 .2-1.1-2.1-.6-1.6.4-2.4.3-1.8-.1.7-.5-.5-1.6-3.2-3.1-2.4-1.2-4.4-1.7-4.4-1.1 0 .5-.5.7-1 .4-.6-.4-.8-1-.5-1.4.2-.5-.6-.9-2-.9s-2.3.4-2.1.7c.3.4-.5.8-1.6.8-2.2.2-3.4 1-2.7 1.8.3.2 2 .1 3.7-.5 2.2-.6 3-.5 2.6.2-.4.6 0 1.4.7 1.9 1.1.7 1 .9-.3.9-1 0-1.8-.5-1.8-1 0-.6-1.5-.8-3.4-.6l-3.4.4 1.2-3.1c.6-1.8 1.6-3.6 2.1-4 .6-.5.4-.7-.5-.4-.8.2-2.4 0-3.4-.6-1.5-.7-1.8-.6-1.3.5.7 1.8-4.5 5.1-6.7 4.2-1.9-.7-2.1-2.4-.3-2.4.8 0 .7-.4-.3-1-2-1.3-3-1.2-2.7.2.1.7-.8 1.4-2.1 1.6-1.4.2-2 .8-1.6 1.5.4.7.1.6-.7-.2-1-1-1.1-1.5-.2-1.8.7-.2 1-1 .7-1.8-.3-.8-1.2-1.1-2-.8-.8.3-1.1.9-.8 1.4.3.5-.1.9-.8.9-1.1 0-1.1.2 0 .9 1 .6 1 1-.1 2-1.2.9-1.5.8-1.3-.5 0-.9-.5-1.9-1.3-2.2-.9-.3-1.1 0-.6.8.6 1 .3 1.2-1.1.7-1.4-.5-1.2-.1.8 1.7 2.2 2 2.4 2.5 1.2 3-2.3.9-3.1.7-1.4-.4 1.1-.7.9-1.1-1.3-1.9-3.6-1.4-6.1-1.3-2.7 0 2.4 1 2.4 1.1.6 2.5-1.1.8-2.6 1.4-3.3 1.4-.7 0-1.3.5-1.3 1.1 0 .7.9.9 2.3.6 1.2-.4 2.8-.3 3.5.2.8.4-.5.8-3 .8-2.4.1-5.3.4-6.5.6-2.6.7-6.5-.2-5.8-1.3.3-.5-1.2-.1-3.4.8s-3.7 2.1-3.4 2.6c.4.5 0 .6-.7.1-1-.6-1.2-.4-.6 1.1s.5 1.7-.5.6c-1.5-1.4-3.3-1.6-2.4-.2.3.6-.1.7-1 .4-1-.4-1.4-.2-1 .7.4 1-.4 1.4-2.5 1.5-1.7.1-3.9.9-4.9 1.8-1.1 1-2.2 1.3-2.5.8-.3-.5 10.2-6.1 23.3-12.6 21.1-10.3 23.8-11.9 23.6-13.9-.1-1.2-.3-3.2-.4-4.5-.1-1.8-.6-2.3-2.3-2.1-1.3.2-2.9-.1-3.7-.5-1-.6-1.2-.5-.7.2.4.7.1 1.2-.8 1.2s-1.5.3-1.5.7c.3 1.9-.2 2.5-1.4 1.5-.8-.7-1.8-.7-2.7-.2-1.3.9-1.3 1 0 1 .8.1 0 .7-1.8 1.5s-4 1.1-5 .8c-1.5-.6-1.6-.5-.2 1.3 1.1 1.5 1.1 1.6 0 .6-.8-.6-2.8-1.1-4.4-1.1-2.8.2-2.8.2-.6.6 1.4.3 3 .9 3.5 1.5.7.7.6.9-.1.5-.6-.3-2.4-.2-4 .3-1.6.4-2.2.9-1.4.9 1.3.1 1.3.2 0 1.1-1.9 1.2-3.3 1.3-2.6.1.4-.5-.7-.4-2.4.2-1.6.6-3 1.5-3 1.9 0 .4-2 .1-4.5-.6-2.5-.8-4.3-1-4-.6.3.5 2 1.2 3.8 1.6l3.2.7-2.5 1c-3.2 1.2-15.5 1.7-13.8.5.8-.6-.3-.7-2.7-.4-2.2.3-5.8.6-8 .8-2.2.1-4.5.6-5.2 1-.6.5-1.4.5-1.7 0-.3-.4.8-1.6 2.5-2.6 1.6-.9 2.9-2.4 2.9-3.2 0-1.9-1.6-1.8-2.4.2-.5 1.4-.9 1.4-2.3.3-1.2-1-1.4-1-.9-.2.4.8.2 1.3-.6 1.3-1 0-1 .2.1.9 1 .6.5 1.1-1.8 1.6-1.8.4-3.5.4-3.8.1-.4-.3.5-.6 1.8-.6 1.7 0 2-.3 1-.9-.9-.6-1-1.1-.2-1.5 1.7-1.1 1.3-2.6-.6-2.5-1.2 0-1.3.2-.5.6 1.6.6-1.4 3.2-3.7 3.3-1.1 0-.9-.4.5-1.5 1.8-1.4 1.8-1.5-.6-.6-3 1-6.5-.1-7.3-2.3-.4-.9-1.4-1.6-2.2-1.6-.9 0-1.3-.5-.9-1.1.4-.8 0-.9-1.5-.4-1.2.3-2.1.2-2.1-.4 0-.5 1-1.2 2.2-1.4 1.3-.2.2-.5-2.4-.6-2.7 0-4.8.3-4.8.9 0 .5-.8.6-1.7.3-1.5-.6-1.5-.7.3-1.5s1.8-.8-.1-.5c-1.9.2-2 1.1-2.3 13L-.1 75l8.6 4.2c5.8 2.9 8.5 4.8 8.5 6 0 1.1-.5 1.5-1.5 1.2-.8-.4-1.7.1-2.1.9-.3.9-1.2 1.3-2.1 1-1.1-.4-1.4-.3-.9.6.5.8.3 1.1-.5 1-2-.3-5 1.2-4.4 2.1.3.5-.3.6-1.3.3-2.8-.7-4.4 2-4 7l.3 4.5L22 93.3l21.5-10.4 27 13.7c14.8 7.5 27.1 13.8 27.3 13.9.2.2-.4.5-1.3.9-1 .4-1.4.2-.9-.6.5-.7-.2-.9-2.2-.5-1.6.3-2.3.4-1.6.1.8-.4 0-1.3-2.3-2.5-2-1.1-4.1-1.6-4.7-1.3-.6.4-.8.3-.5-.3.7-1.1-4.1-3.8-6.2-3.4-.7.1-1-.2-.6-.8.3-.6 0-1.2-.7-1.3-.7 0-1.8-.2-2.3-.2-.6-.1-2.4-1.1-4-2.2-1.7-1.2-6.1-3.6-9.8-5.4-5.7-2.7-7.1-3.1-7.9-1.9-.8 1.1-.9 1-.4-.4.4-1.2 0-1.7-1.4-1.7-1.1 0-2.4-.8-2.9-1.9-.6-1-2.1-2.1-3.3-2.4-2.1-.6-2.2-.5-.5.7 1.5 1.2 1.5 1.4.2 1.9-.8.4-1.4.1-1.2-.5.1-.6-.4-1.3-1-1.5-.7-.3-1.3 0-1.3.6s-.9 1.1-2 1.1-2 .4-2 .9c0 1.1-5.6 3.2-6.4 2.4-.3-.4-.6-.1-.6.5s-1.4 1.3-3 1.7c-1.7.4-3 1.1-3 1.7 0 .6.7.7 1.6.4.8-.3 1.2-.2.9.4-.3.6-1.7.7-3 .4-1.4-.3-3.4.1-5.1 1.2-1.5 1-3.2 1.9-3.8 1.9-.6 0-4.1 1.6-7.9 3.4L0 105.4v34.1l5 2.8c2.8 1.6 5 3.1 5 3.4 0 .2-2-.7-4.4-2.1C3.1 142.2.9 141 .7 141c-.3 0-.6 7.9-.7 17.5 0 9.6.2 17.5.5 17.5s11.7-5.8 25.2-13 24.8-13 25-13c.3 0 14.4 7.7 31.4 17.2l30.9 17.2v7.6l.1 7.5L137 213l24 13.5V302h23.2c12.7 0 22.9-.2 22.7-.4-.2-.2-5.3-3.4-11.4-7.1-13-7.9-20.5-12.7-20.5-13.1 0-.6 4.1.9 4.6 1.7.7 1.2 3.4 1.2 3.4 0 0-.5-.9-1.1-1.9-1.4-1.6-.4-2.2-3-1.1-4.5.3-.3.7-1.9.9-3.3 0-.6.7-.9 1.5-.6 1.6.6 3.4-3.7 3.4-8.3 0-6.1-2-26.5-2.7-27-.5-.3-1.2-2-1.6-3.8-.3-1.7-1.1-3.2-1.7-3.2-.6 0-.5-.7.3-1.7 1.2-1.4 1.2-1.6-.1-1.1-1.1.4-1.5-.2-1.6-2.1-.1-3.9-.6-5-3.6-8.3-3.6-3.9-3.5-4.9.3-3.6 4.2 1.4 11.6.3 15.9-2.5 1.9-1.3 4.2-2.6 5-3 .8-.4 3.1-1.7 5-2.9 3.2-2 6.1-3.7 16-9.2 1.9-1 4-2.5 4.8-3.2.7-.8 1.8-1.4 2.3-1.4.6 0 3.7-1.8 6.9-4l5.9-4 24.6 12.5 24.6 12.6 7.4-5c5.3-3.5 7.1-5.2 6.2-5.9-.7-.5-12.2-6.4-25.6-13.1-13.4-6.7-24.9-12.8-25.6-13.4-.7-.8-1.1-3.5-1-6.7 1.2-32 2.9-64.5 3.4-64.8.3-.1 2.2-1.2 4.1-2.3 3.4-2.1 3.4-2.2 1.2-3-1.2-.5-2.9-.6-3.7-.3-1.4.6-8.5-2.1-8.5-3.2 0-.3.5-.2 1.2.2s.8.3.4-.4c-.4-.6-1.3-.9-2.2-.5-1.6.6-10.9-2.6-10-3.4.3-.3 2.1.2 4.1 1.1 2 1 4.1 1.5 4.8 1.2.8-.3.6-.5-.3-.5-.8-.1-3.2-1-5.3-2.1-2-1.1-3.7-1.7-3.7-1.4 0 .3-.7-.2-1.6-1.1-.9-.9-1.9-1.3-2.2-1-.4.3 0 1 .8 1.5 2.1 1.3.3 1.2-2.1-.1-1.1-.5-1.7-1.4-1.4-2 .4-.5.1-1-.4-1-2.2-.3-2.6-.5-5.3-2.3-1.5-1-3.1-1.5-3.7-1.2-.5.3-1.2 0-1.4-.6-.4-1-.6-1-.6-.1-.1.7-.6 1.3-1.2 1.3s-.9-.7-.6-1.4c.7-1.6-2.6-3.2-4.3-2.1-.6.4-.9.1-.8-.6.2-.6-.3-1.4-1.1-1.7-.8-.3-1.1 0-.7.7.4.6.2.9-.7.5-.8-.3-1.4-1.4-1.3-2.5.1-1.6 5.9-5 26.5-15.8l26.3-13.8 7.2 3c3.9 1.6 14 5.8 22.4 9.3l15.2 6.3v-28c0-19-.3-27.9-1.1-27.9-.5 0-.8.4-.5.9.4.5-.3.7-1.5.4-1.6-.5-1.8-.8-.7-1.5.9-.7.8-.8-.6-.4-2.2.7-8.6-1.1-8.6-2.4 0-.5-.6-.7-1.4-.4-.8.3-1.7.1-2.1-.5-.4-.7-5.2-1.1-12.8-1h-12.2l10.7 4.1zM216 48.8c-.8.3-2.4.9-3.5 1.4-1.4.7-1.3.4.5-1.1 1.3-1 2.9-1.7 3.4-1.3.6.3.4.8-.4 1zM120 59c0 .5-.5 1-1.1 1-.5 0-.7-.5-.4-1 .3-.6.8-1 1.1-1 .2 0 .4.4.4 1zm55.1-.3c-1.1.5-1.1.7 0 1.4.9.6-.2.8-3.1.8-3.3 0-4-.3-2.5-.8 1.1-.5 2.3-.7 2.8-.4.4.2.7-.1.7-.6 0-.6.8-1.1 1.8-1 1.2 0 1.3.2.3.6zm16.4 1.3c-.3.5-1.2 1-1.8 1-.7 0-.6-.4.3-1 1.9-1.2 2.3-1.2 1.5 0zm-81.8 2.6c0 1.9-2 1.2-2.3-.8-.1-1 .3-1.5 1-1.2.7.3 1.3 1.2 1.3 2zm8.3-.6c0 .5-.7.7-1.5.4-.8-.4-1.2-1-.9-1.5.6-1.1 2.4-.2 2.4 1.1zm68.3.5c-2.2 1.7-3 1.1-1.3-1 .7-.8 1.7-1.2 2.2-.9.5.3.1 1.2-.9 1.9zm-85.6 2c-.6 1.9-1.4 3.5-1.9 3.5-1.1 0-1-.2.8-3.8 2-4.2 2.5-4 1.1.3zm4.3-2.1c0 .2-.7.7-1.6 1-.8.3-1.2.2-.9-.4.6-1 2.5-1.4 2.5-.6zm8.7.2c-.3.3-1.2.4-1.9.1-.8-.3-.5-.6.6-.6 1.1-.1 1.7.2 1.3.5zm19.3.4c0 .5-.7 1-1.6 1-.8 0-1.2-.5-.9-1 .3-.6 1-1 1.6-1 .5 0 .9.4.9 1zm40 0c2.4 1.5.7 1.8-3 .4-3.1-1.1-3.2-1.3-1-1.3 1.4 0 3.2.3 4 .9zM52.3 65c.3 1.1.1 1.8-.4 1.4-.5-.3-.9-1.2-.9-2 0-2 .7-1.7 1.3.6zm-2.3.1c0 1.1-2.7 1.2-3.4.1-.2-.4.4-.9 1.5-.9 1-.1 1.9.2 1.9.8zm131.5-.1c.3.6-.1.7-.9.4-1.8-.7-2.1-1.4-.7-1.4.6 0 1.3.4 1.6 1zM43.4 66.5c-.4.8-1.1 1.5-1.6 1.5-.6 0-.5-.6.2-1.5.7-.8 1.4-1.5 1.6-1.5.2 0 .1.7-.2 1.5zm90.6-.8c-1.9.3-4.2 1-5 1.6-1.3 1-1.3 1-.1-.6.9-1.1 2.6-1.6 5-1.5l3.6.1-3.5.4zm-97 .7c0 .3-.4.8-1 1.1-.5.3-1 .1-1-.4 0-.6.5-1.1 1-1.1.6 0 1 .2 1 .4zM49 68c0 .5-.4 1-1 1-.5 0-1-.5-1-1 0-.6.5-1 1-1 .6 0 1 .4 1 1zm84 0c0 .5-.2 1-.4 1-.3 0-.8-.5-1.1-1-.3-.6-.1-1 .4-1 .6 0 1.1.4 1.1 1zm-86.5 2c.3.6-.1.7-.9.4-1.8-.7-2.1-1.4-.7-1.4.6 0 1.3.4 1.6 1zm30.9.2c-.5.8-.2.9 1.2.4 1-.4 1.5-.4 1.1.1-.5.4-2.2.8-3.8.9-2.7.2-2.8 0-1.2-1.2 2.2-1.7 3.7-1.8 2.7-.2zm52.9-.5c-.7.2-1.9.2-2.5 0-.7-.3-.2-.5 1.2-.5s1.9.2 1.3.5zm-41.6.9c-.3.3-1.2.4-1.9.1-.8-.3-.5-.6.6-.6 1.1-.1 1.7.2 1.3.5zm-7.4 5.1c-.7.2-1.9.2-2.5 0-.7-.3-.2-.5 1.2-.5s1.9.2 1.3.5zm-15.4 1.6c1.1-.4 1-.1-.4 1-1.1.9-2.4 1.6-3 1.7-.5 0-.3-.5.5-1 1-.6 1.1-1 .3-1-.7 0-1.3-.5-1.3-1.2 0-.9.3-.9 1.1-.1.6.6 1.9.9 2.8.6zM61 78c0 .5-.5 1-1.1 1-.5 0-.7-.5-.4-1 .3-.6.8-1 1.1-1 .2 0 .4.4.4 1zm94.5 0c.3.5.2 1-.4 1-.5 0-1.3-.5-1.6-1-.3-.6-.2-1 .4-1 .5 0 1.3.4 1.6 1zm27 4.3c1.1.7 7 3.5 13 6.2 6.1 2.7 11.5 5.3 12 5.8.6.7.3.7-1 .2-1.1-.5-3-.9-4.2-.9-1.1-.1-1.9-.4-1.7-.7.3-.6-.5-1-4.6-2.3-.3-.1-1.7-1-3.2-2-1.5-1-3.1-1.5-3.7-1.2-1.2.8-4.2-.4-3.6-1.4.6-.9-4.4-3.3-6.7-3.3-3.5.1-3.9.3-3.2 1.5.5.7.2.9-.9.5-.8-.3-2.1 0-2.7.8-.6.8-1.8 1.1-2.5.8-1-.3-1.3.1-1 1.6.2 1.1-.1 2.4-.7 2.7-.6.4-.8.3-.5-.3.4-.6-.4-1.1-1.8-1.1s-2.2.5-1.8 1.1c.3.5.1.7-.5.4-1.3-.9-4.4.2-3.7 1.3.7 1.1-1.1 2.2-3.9 2.5-3.6.4-3.7.5-3.1 1.5.3.6-.1.7-.9.4-.9-.3-1.6-.1-1.6.5s-.3 1-.7.9c-1.4-.4-5.3 1.3-5.3 2.3 0 .5-1 .9-2.2 1-2.2 0-2.2.1-.3.9 1.8.8 1.7.9-.5.7-2.2-.1-8.6 2.7-10 4.4-.3.3-1.8.9-3.3 1.3-1.5.4-2.6 1-2.3 1.4.2.4-.7.8-2.1.8-1.3.1-2.3.1-2.1-.1 2-1.7 43.8-22.8 45-22.7 1 0 1.7-.3 1.5-.8-.3-1.1 8.3-5.8 10.8-5.9 1.1-.1 2.9.5 4 1.2zm-38.8 3.3c-.3.3-1.2.4-1.9.1-.8-.3-.5-.6.6-.6 1.1-.1 1.7.2 1.3.5zm75.6 13.8c4.8 2.2 8.6 4.1 8.4 4.3-.4.3-8.7-3-12-4.8-1-.5-2.3-.7-2.9-.3-.7.5-.8.3-.3-.6.5-.9.1-1.1-1.6-.6-1.3.3-1.8.3-1 0 1.1-.5 1.1-.8 0-1.6-2.1-1.5 0-.7 9.4 3.6zm-108.6 2.2c-.3.3-1.2.4-1.9.1-.8-.3-.5-.6.6-.6 1.1-.1 1.7.2 1.3.5zm127 6.3c1.4.7 1.3.9-.9.8-1.4-.1-2.4-.5-2.2-.9.3-.4-1.4-1.1-3.6-1.4-2.7-.4-3.7-1-2.9-1.5 1.2-.7 5.3.6 9.6 3zM20.6 151.7c-.4.4-7.6-3.7-7.6-4.4 0-.2 1.8.6 4 1.8 2.2 1.2 3.8 2.4 3.6 2.6zM170.5 211c.3.5.1 1-.4 1-.6 0-1.1-.5-1.1-1 0-.6.2-1 .4-1 .3 0 .8.4 1.1 1zM200.9 5.7c-1.3 1.5-1.2 1.5.9.4 2.3-1.2 2.8-2.1 1.3-2.1-.5 0-1.5.7-2.2 1.7z"/><path d="M267.7 5.1c.7.7 1.5 1 1.8.7.3-.3-.2-.9-1.2-1.2-1.4-.6-1.5-.5-.6.5zM264.9 6.2c.8 1.1 2.5 1.7 4.5 1.7l3.1-.2-3-.4c-1.6-.3-3.7-1-4.5-1.6-1.3-1-1.3-1-.1.5zM192.3 9.4c-1.3.6-2.3 1.4-2.3 1.9 0 .4 1.4.1 3-.8 1.7-.9 3-1.8 3-2 0-.7-1.2-.4-3.7.9zM108 19c-.3 8-1.6 15.9-1.9 11l-.1-2.5-1.3 2.5c-1 1.9-2 2.4-4.3 2.3-1.9-.2-2.4.1-1.5.6.9.6 1 1 .2 1.6-.7.4-1.8.2-2.5-.4-1.6-1.4-2.9-.2-1.5 1.5 1.6 2-.6 2.5-3.7.9-1.6-.8-2.5-1.5-2-1.5.6 0 .5-.5-.1-1.1-.8-.8-1.8-.7-3.8.3-2.7 1.4-2.6 1.5 10.7 7.6 11.3 5.3 13.3 5.9 13.6 4.4.1-.9-.2-9.1-.6-18.2-.7-11.7-1-14.3-1.2-9zm-3 16c0 1.1-.4 2-.9 2s-.7-.9-.4-2c.3-1.1.7-2 .9-2 .2 0 .4.9.4 2zm-16.5 0c-.3.6.4 1.4 1.7 1.9 1.3.6 1.8 1 1.1 1-.7.1-2.4-.4-3.8-1.1-1.8-.8-2.2-1.4-1.3-2 1.8-1.1 3-1 2.3.2zm10.7.2c.7-.7 1.9-1.2 2.8-1.1 1 0 .7.4-.7 1.1-2.9 1.4-2.9 2.4-.1 3.1 1.2.4 2 .9 1.6 1.2-.9 1-5.3-1.5-6.8-3.8-1.2-2-1.2-2.1.4-.8 1.3 1.1 2 1.1 2.8.3zM98 39.6c0 .2-.9.4-2.1.4-1.1 0-1.8-.4-1.4-1 .5-.8 3.5-.3 3.5.6zM77.1 17.6c0 1.1.3 1.4.6.6.3-.7.2-1.6-.1-1.9-.3-.4-.6.2-.5 1.3zM46.5 24c-2.2 1.1-3.1 1.8-2.1 1.5 1.1-.3 2.4 0 2.9.7.6.9.7.8.3-.5-.5-1.7.6-2.2 4.9-1.9 1.6.2 1.7 0 .5-.8-1.9-1.3-1.8-1.3-6.5 1zM59.3 29.5c1.5 1.4 3.5 2.5 4.4 2.5 1.9 0 1.9 0-3.2-2.8l-4-2.3 2.8 2.6zM61 27.5c0 .8 7.3 3.6 7.8 3 .3-.3.3-.5 0-.5s-2.2-.7-4.2-1.5-3.6-1.3-3.6-1zM251.8 27.7c.7.3 1.6.2 1.9-.1.4-.3-.2-.6-1.3-.5-1.1 0-1.4.3-.6.6zM36 28.4c0 .2.7.7 1.6 1 .8.3 1.2.2.9-.4-.6-1-2.5-1.4-2.5-.6zM187.6 28.8c-.3.5.1.9.9.9s1.2-.4.9-.9c-.3-.4-.7-.8-.9-.8-.2 0-.6.4-.9.8zM231 29c.8.5 2 1 2.5 1 .6 0 .3-.5-.5-1s-1.9-1-2.5-1c-.5 0-.3.5.5 1zM78 31.9c0 .6.4 1.3 1 1.6.6.3.7-.1.4-.9-.7-1.8-1.4-2.1-1.4-.7zM199.6 31.7c-1 1.1-.7 2.1 1 2.7.8.3 1.3.2.9-.3-.3-.5 0-1.1.7-1.3.8-.3.6-.6-.4-1-.9-.4-1.9-.4-2.2-.1zM24 34c-1.9 1.1-2.9 1.9-2.1 2 1.1 0 1 .4-.4 1.4-1.8 1.3-1.7 1.3.6 1.1 3.3-.3 3.3-.3 2-1.8-1.5-1.9 3.5-4.3 5.4-2.7.9.8 1.5.8 2 0 .3-.5.2-1-.4-1-.5 0-1.5-.2-2.3-.5-.7-.2-2.9.4-4.8 1.5zM72.7 33.1c.7.7 1.5 1 1.8.7.3-.3-.2-.9-1.2-1.2-1.4-.6-1.5-.5-.6.5zM247 33c-.9.6-1 1-.3 1 .6 0 1.5-.5 1.8-1 .8-1.2.4-1.2-1.5 0zM75.5 37c-1.6.7-1.7.9-.3.9.9.1 2-.4 2.3-.9.7-1.1.7-1.1-2 0zM210 37.5c-.7.9-.8 1.5-.2 1.5.6 0 1.2-.5 1.4-1.1.2-.7 1.1-.7 2.8 0 2.1.8 2.2 1 .5 1.1-1.1 0-2.7.5-3.5 1.1-1.6 1.1-1.6 1.1 5-.6 2.3-.6 2.4-.5.5.7-1.1.6-5.4 1.5-9.5 1.9l-7.5.6 6.2.1c3.4.1 7.4-.3 9-.8 2.7-1 2.7-.9.8.6-1.3 1-1.5 1.5-.5 1.3.8-.2 2.5.3 3.8 1 2 1 2.7 1 4.8-.4 2.1-1.3 2.5-3.5.8-3.5-.3 0-.3.4.1.9 1 1.8-3.3 3.3-5.6 2.1-1.1-.7-1.8-1.4-1.5-1.7.3-.3 1.3 0 2.1.7 1.2 1 1.9 1 2.7.2.9-.9.7-1.2-.9-1.2-1.2 0-2.5-.5-2.8-1-.4-.7.3-.9 2.2-.5 2.1.5 1.8.2-1.3-1.3-6.5-3.1-8-3.4-9.4-1.7zM78.3 38.5c-.4.5-.3.7.2.3.4-.4 1.4-.3 2.1.3 1.4 1.2 3.8.3 2.9-1.1-.7-1.2-4.5-.8-5.2.5z"/><path d="M206.5 37.9c-.3.5-.2 1.2.3 1.5.5.3.9-.1.9-.9 0-1.7-.3-1.9-1.2-.6zM12.9 39.9c1.1.7 1 1.1-.5 2-1.1.6-1.4 1.1-.8 1.1.6 0 1.7-.6 2.3-1.3 1.1-1.4.5-2.7-1.3-2.7-.6 0-.5.4.3.9zM17 40c.8.5 2.6 1 3.9 1 3.2 0 2.4-.6-1.9-1.4-2.5-.4-3.1-.3-2 .4zM139.8 39.7c.7.3 1.6.2 1.9-.1.4-.3-.2-.6-1.3-.5-1.1 0-1.4.3-.6.6zM9 41c-.9.6-1 1-.3 1 .6 0 1.5-.5 1.8-1 .8-1.2.4-1.2-1.5 0zM135.5 41c-.3.6.1.7.9.4 1.8-.7 2.1-1.4.7-1.4-.6 0-1.3.4-1.6 1zM75.2 41.7c-.6.2-1 .9-.7 1.3.7 1.1 3.5.2 3.5-1.1 0-1-.8-1-2.8-.2zM83 42.4c0 .2 1.4.6 3 .8 1.7.3 3 .1 3-.4 0-.4-1.3-.8-3-.8-1.6 0-3 .2-3 .4zM131.4 42.8c.3.6-.2 1.3-1.1 1.6-1 .2 0 .3 2.2 0 3-.3 3.5-.2 2 .5-1.1.5-1.5 1-1 1.1 4.4.6 7.7.8 6.5.3-.8-.3-2.2-1.1-3-1.8-2-1.7-6.4-3-5.6-1.7zM190 42.4c0 .9 3 1.4 3.5.6.4-.6-.3-1-1.4-1-1.2 0-2.1.2-2.1.4zM1.5 44.3c-2.3 1.8-1.1 4 1.7 3.1 1.4-.4 1.8-.2 1.4.5-.4.6-.2 1.1.4 1.1.7 0 .9-.8.5-2-.4-1.1-.2-2 .4-2 .6 0 1.1.5 1.1 1.1 0 .5.5.7 1.1.3.8-.4.3-1.2-1.2-2-3-1.7-3.1-1.7-5.4-.1zm2.2 1.4c-.9.9-2 1.3-2.4.9-.4-.4-.1-1.1.7-1.6 2.5-1.6 3.5-1.1 1.7.7zM89.6 44.5c-1.8 1.3-1.8 1.4.3 1.2 1.1-.1 2.3-.7 2.5-1.4.7-1.7-.4-1.6-2.8.2zM81.3 44.7c.9.2 2.3.2 3 0 .6-.3-.1-.5-1.8-.5-1.6 0-2.2.2-1.2.5zM209.5 45c.3.5 1.4 1 2.3 1 1.5 0 1.5-.2.2-1-2-1.3-3.3-1.3-2.5 0zM10.6 45.9c-.2.3.9.7 2.5.8 1.5.1 3-.1 3.3-.5.2-.4-.9-.7-2.5-.8-1.6-.1-3.1.2-3.3.5zM75 47.5c0 .9.6 1.2 1.5.9.8-.4 1.5-.7 1.5-.9 0-.2-.7-.5-1.5-.9-.9-.3-1.5 0-1.5.9zM80.8 46.7c.6.2 1.8.2 2.5 0 .6-.3.1-.5-1.3-.5-1.4 0-1.9.2-1.2.5zM200.3 46.7c1 .9 7.7 1 7.7.1 0-.4-1.9-.8-4.2-.8-2.3 0-3.8.3-3.5.7zM71.5 49c-.3.5.1 1 1 1s1.3-.5 1-1c-.3-.6-.8-1-1-1-.2 0-.7.4-1 1zM80.5 48.9c.3.5-.7 1.2-2.2 1.4-1.6.3-.4.3 2.5.1 3-.1 5.7-.6 6-1 .4-.4 0-.5-.8-.2s-2.5.1-3.8-.3c-1.4-.6-2.1-.5-1.7 0zM200 48.8c0 .8-.8 1-2.4.6-1.4-.3-3.3-.1-4.3.5-1.4.8-1.1.9 1.6.4 2.4-.4 3.2-.3 2.7.5s.1 1.2 1.6 1.1c1.3 0 3.4.3 4.7.7 1.7.5 2.2.4 1.7-.4-.4-.7-1.3-1.2-2.1-1.2s-1.9-.8-2.4-1.8c-.6-1-1.1-1.2-1.1-.4zM148.5 50c2.6 1.1 4.5 1.2 4.5.2 0-.4-1.5-.8-3.3-.9-2.6-.1-2.8 0-1.2.7zM158.4 50.2c-.7 1.1 3.1 2.8 6.1 2.8 2.2 0 5.5-1.9 5.5-3.2 0-.6-11.2-.3-11.6.4zM111 51c0 .6-.4.8-1 .5-.5-.3-1.8-.1-2.7.5-1.6.9-1.5 1 .5.5 2-.6 2.7.2 2.3 2.8-.1.4.6 1 1.5 1.4 1.2.4 1.3.7.3 1.4-.8.4-1.1 1.1-.7 1.4.3.4 1.5.1 2.6-.6 2-1.2 2-1.3-.2-3.1l-2.1-1.9 2.3 1.1c1.2.6 2.2.7 2.2.1 0-.5-1.2-1.2-2.7-1.6-1.9-.4-2.3-.9-1.4-1.4.9-.6 1-1.1.2-1.5-.6-.4-1.1-.2-1.1.4zM180 50.4c0 .9 3.9 1.3 5.1.5 1-.6.4-.9-1.8-.9-1.8 0-3.3.2-3.3.4zM17.7 52.4c-.3.8-.2 1.8.3 2.1 1.3.8 2.4-1.5 1.2-2.7-.6-.6-1.1-.4-1.5.6zM145.8 51.7c.6.2 1.8.2 2.5 0 .6-.3.1-.5-1.3-.5-1.4 0-1.9.2-1.2.5zM190 52.4c0 .2.7.7 1.6 1 .8.3 1.2.2.9-.4-.6-1-2.5-1.4-2.5-.6zM69.5 54c-.3.5.1 1 .9 1s1.8-.5 2.1-1c.3-.6-.1-1-.9-1s-1.8.4-2.1 1z"/><path d="M103.5 54c-.2.4.1 1.4.8 2.2 1.1 1.3 1.4 1.3 2.9-.2 1.5-1.7 1.5-1.8-.8-2.3-1.4-.2-2.6-.1-2.9.3zM63.2 55.6c-1.1 1.2-1 1.5.3 2 .9.4 1.9.4 2.2 0 .4-.3.1-.6-.7-.6-1 0-1-.3 0-1.5 1.6-1.9-.1-1.9-1.8.1zM21 56c0 .5.5 1 1 1 .6 0 1-.5 1-1 0-.6-.4-1-1-1-.5 0-1 .4-1 1zM41.8 57.6c-1.6.8-2.8 2-2.8 2.7 0 .8.3.7.9-.2.6-1 3.3-1.6 8.2-1.8 9.2-.4 10.8-1.7 2.6-2-4-.2-7.2.3-8.9 1.3zM123.1 57.9c-.8.5-.9 1.1-.3 1.5.5.3 1.2-.1 1.6-.9.6-1.7.6-1.8-1.3-.6zM54.5 60c.3.5 1.2.7 2 .3 2.1-.7 1.9-1.3-.6-1.3-1.1 0-1.8.4-1.4 1zM58 61c-1.3.9-1.3 1 0 1 .8 0 2.2-.5 3-1 1.3-.9 1.3-1 0-1-.8 0-2.2.5-3 1zM87 63.1c-1.3.9-1.2 1 .3.5 1.1-.4 1.6-.2 1.1.5-.3.6-1.4.9-2.4.6-2.2-.6-6.3 2-5.5 3.4.8 1.1 5.1.4 4.8-.8-.1-.6 1.7-1.6 4-2.3 3.6-1.1 3.9-1.4 2.2-2.1-2.7-1-2.8-1-4.5.2zm-3 3.4c-.7.8-1.7 1.5-2.3 1.5-.6 0-.2-.7.9-1.5 2.5-1.9 3-1.9 1.4 0zM149 70.5c-.8.9-.8 1.5-.2 1.5.6 0 1.9.3 2.9.7 1.6.6 1.7.5.3-1.2s-1.4-1.8 1-.6c2.4 1.1 2.4 1.1.6-.3-2.5-2-3-2-4.6-.1zM160.3 74.5c0 .8.4 1.2.9.9.5-.3.6-1 .3-1.5-.9-1.3-1.2-1.1-1.2.6zM292 207.4c0 .3.9 1 2 1.6 1.1.6 2 .8 2 .6 0-.3-.9-1-2-1.6-1.1-.6-2-.8-2-.6zM288.7 209.7c-1.2 1.2-.7 4.3.7 4.3.7 0 3.8 1.2 6.8 2.8 3.6 1.8 5.5 2.3 5.5 1.5 0-1.2-1.1-1.7-2.9-1.4-.5 0-.8-.9-.8-2 0-1.8-.2-1.9-1.5-.9-1.3 1.1-1.4 1-.9-.4.3-.9.2-1.6-.4-1.6-.6 0-1.2.5-1.4 1.2-.3.9-.6.9-1.2 0-.4-.7-.2-1.2.3-1.2.6 0 1.1-.5 1.1-1.1 0-.7-1-.9-2.6-.5-1.7.5-2.3.3-1.9-.4.7-1.1.2-1.4-.8-.3zM299.2 213c0 1.4.2 1.9.5 1.2.2-.6.2-1.8 0-2.5-.3-.6-.5-.1-.5 1.3zM0 257.5V302h69l-.4-4c-.2-2.2-.8-4.6-1.5-5.3-.6-.8-.8-1.7-.4-2.1.4-.4.1-1.1-.7-1.6-1.2-.8-1.1-1 .5-1 1.5 0 1.6-.3.7-1.2-.9-.9-.8-1.6.4-2.9 1.7-1.8 1.2-3.9-.9-3.9-1.3 0-5.7-6-5.7-7.7 0-.7-1.2-2.1-2.6-3.2-1.4-1.1-3-3.6-3.5-5.6-.7-2.3-1.5-3.5-2.3-3.2-.8.3-1.8-.9-2.5-2.9-.7-1.9-1.7-3.2-2.2-2.9-.5.4-.9.1-.9-.4 0-.6-.5-1.1-1.1-1.1-.6 0-1.7-.7-2.5-1.5-.9-.8-1.1-1.5-.5-1.5.6 0 1.1-.7 1.1-1.6 0-.8-.5-1.2-1.1-.8-.6.3-1.5 0-2-.7-.7-1.1-.9-1.1-.9-.1s-.3 1-1.5-.2c-2-1.9-1.9-2.7.3-2 .9.2.6-.1-.8-.8-3.2-1.7-10-8.3-10-9.8 0-.7-.7-.9-1.7-.6-1 .4-1.4.4-1 0 .8-.8-3.9-5.4-5.5-5.4-.6 0-.9-.3-.5-.6.6-.6-1.6-3.4-2.7-3.4-.3 0-3.4-2.1-6.8-4.6-3.5-2.5-7.1-5-8-5.5C.1 213 0 215.1 0 257.5zM33.5 221c-.3.6.1.7.9.4 1.8-.7 2.1-1.4.7-1.4-.6 0-1.3.4-1.6 1zM181.9 275.9c1.1.7 1.1.9 0 1.3-.8.3-1 .9-.6 1.4.9 1 2.8-1.6 2.1-2.8-.3-.4-1.1-.8-1.7-.8-.8 0-.7.3.2.9zM277.6 280.5c-1.1.8-1.6 1.5-1 1.5.5 0 1.8-.7 2.8-1.5 1.1-.8 1.6-1.5 1-1.5-.5 0-1.8.7-2.8 1.5zM185.9 282.6c1.2.9 2.7 1.3 3.4 1.1.7-.3.4-.6-.6-.6-1-.1-1.6-.5-1.3-.9.2-.4-.5-.9-1.6-.9-2.1-.2-2.1-.2.1 1.3zM273 284c-.9.6-1 1-.3 1 .6 0 1.5-.5 1.8-1 .8-1.2.4-1.2-1.5 0zM188.3 287.1c-.2 2.4 1.5 3.5 3 2 .9-.9.8-1.1-.5-.6-1 .4-1.8.3-1.8-.3s.5-1.2 1.2-1.4c.8-.3.7-.6-.3-1s-1.5.1-1.6 1.3zM267.5 287.9c-.3.5-.2 1.2.3 1.5.5.3.9-.1.9-.9 0-1.7-.3-1.9-1.2-.6zM259.3 293.1c-3.9 2.5-3.9 2.5-1.4 2.5 1.1 0 1.9-.5 1.8-1.1-.1-.5.5-1 1.4-.9.9.1 1.6-.5 1.6-1.2 0-.8-.1-1.4-.1-1.4-.1 0-1.6 1-3.3 2.1zM252.5 298c-.3.5.5 1.4 1.7 2.1 1.3.6 2 .8 1.6.4-.4-.5-.4-1.3.2-1.9.6-.8.3-1.2-1-1.3-1.1-.1-2.2.2-2.5.7z"/></svg>